<svg width="300" height="300" viewBox="0 0 300 300" fill="none" xmlns="http://www.w3.org/2000/svg">
<circle cx="150" cy="150" r="143" stroke="white" stroke-width="14"/>
<circle cx="149.5" cy="150.5" r="128.5" fill="url(#paint0_linear_1_72)"/>
<path d="M38.0975 122.242C38.0635 122.261 38.0289 121.359 38.4938 118.884C39.2108 115.066 41.5856 111.931 43.3391 109.823C44.3338 108.626 46.1094 107.342 48.5629 105.775C51.0165 104.209 54.2394 102.443 57.4503 100.955C60.6612 99.4675 63.7625 98.3114 68.5875 96.8793C73.4124 95.4473 79.867 93.7745 83.9318 92.7915C89.4062 91.4677 94.2296 91.1073 100.889 90.7981C104.313 90.6391 107.854 90.7125 111.145 90.9193C114.435 91.1261 117.375 91.5246 122.671 92.4617C127.966 93.3988 135.528 94.8624 141.156 95.7401C146.784 96.6177 150.248 96.8652 153.913 96.9759C157.578 97.0867 161.34 97.0531 165.96 96.5053C170.581 95.9574 175.946 94.8962 179.771 94.0591C183.596 93.222 185.717 92.6413 188.471 91.7529C191.225 90.8645 194.548 89.686 198.945 87.7762C203.342 85.8665 208.712 83.2611 214.229 80.2249C219.746 77.1886 225.247 73.8004 231.08 70.2426" stroke="white" stroke-width="2" stroke-linecap="round"/>
<path d="M43.1562 188.4C43.1942 188.068 44.3214 186.09 47.2784 182.779C49.0662 180.777 51.9178 178.319 54.7395 176.05C57.5612 173.78 60.3895 171.824 63.7352 169.831C67.081 167.837 70.8585 165.867 74.1685 164.35C77.4785 162.833 80.2065 161.829 85.9668 160.389C91.7272 158.949 100.437 157.103 110.603 155.666C120.769 154.228 132.127 153.256 144.878 152.636C157.63 152.016 171.429 151.779 181.96 151.113C192.491 150.448 199.334 149.361 203.914 148.55C208.495 147.738 210.605 147.235 214.903 145.697C219.2 144.159 225.622 141.602 230.033 139.643C234.444 137.685 236.65 136.402 239.407 134.279C242.165 132.157 245.406 129.234 248.846 125.9C252.285 122.566 255.825 118.909 257.746 116.914C259.667 114.919 259.863 114.697 260.156 114.4" stroke="white" stroke-width="2" stroke-linecap="round"/>
<path d="M88.5426 248.331C88.5426 248.045 89.1174 246.406 93.9717 241.072C96.1697 238.657 100.549 235.704 105.937 232.368C111.324 229.032 117.938 225.602 123.947 222.955C129.957 220.307 135.161 218.546 140.281 217.149C145.402 215.752 150.282 214.773 162.033 213.871C173.785 212.969 192.261 212.175 202.94 211.533C213.619 210.891 215.941 210.426 220.814 208.954C225.688 207.482 233.043 205.017 237.845 203.104C242.647 201.192 244.673 199.906 246.407 198.653C251.219 194.833 252.179 194.342 253.173 193.993C253.768 193.803 254.547 193.587 255.543 193.331" stroke="white" stroke-width="2" stroke-linecap="round"/>
<defs>
<linearGradient id="paint0_linear_1_72" x1="149.5" y1="22" x2="149.5" y2="279" gradientUnits="userSpaceOnUse">
<stop offset="0.384615" stop-color="#E6451E"/>
<stop offset="0.951923" stop-color="#802611"/>
</linearGradient>
</defs>
</svg>
